<svg xmlns="http://www.w3.org/2000/svg" version="1.1" xmlns:xlink="http://www.w3.org/1999/xlink" xmlns:svgjs="http://svgjs.com/svgjs" width="1440" height="350" preserveAspectRatio="none" viewBox="0 0 1440 350"><g mask="url(&quot;#SvgjsMask1046&quot;)" fill="none"><rect width="1440" height="350" x="0" y="0" fill="#0e2a47"></rect><path d="M-83.07 230.21L-83.07 230.21" stroke="#132e65" stroke-width="1.5"></path><path d="M-83.07 230.21L60.7 246.1" stroke="#132e65" stroke-width="1.5"></path><path d="M-83.07 230.21L-60.69 382.13" stroke="#132e65" stroke-width="1.5"></path><path d="M-83.07 230.21L75.47 354.54" stroke="#132e65" stroke-width="1.5"></path><path d="M-83.07 230.21L-67.62 510.17" stroke="#132e65" stroke-width="1.5"></path><path d="M-83.07 230.21L192.65 387.14" stroke="#132e65" stroke-width="1.5"></path><path d="M-60.69 382.13L-60.69 382.13" stroke="#132e65" stroke-width="1.5"></path><path d="M-60.69 382.13L-67.62 510.17" stroke="#132e65" stroke-width="1.5"></path><path d="M-60.69 382.13L75.47 354.54" stroke="#132e65" stroke-width="1.5"></path><path d="M-67.62 510.17L-67.62 510.17" stroke="#132e65" stroke-width="1.5"></path><path d="M-67.62 510.17L75.47 354.54" stroke="#132e65" stroke-width="1.5"></path><path d="M60.7 246.1L60.7 246.1" stroke="#132e65" stroke-width="1.5"></path><path d="M60.7 246.1L75.47 354.54" stroke="#132e65" stroke-width="1.5"></path><path d="M60.7 246.1L-60.69 382.13" stroke="#132e65" stroke-width="1.5"></path><path d="M60.7 246.1L192.65 387.14" stroke="#132e65" stroke-width="1.5"></path><path d="M60.7 246.1L253.56 215.71" stroke="#132e65" stroke-width="1.5"></path><path d="M60.7 246.1L-67.62 510.17" stroke="#132e65" stroke-width="1.5"></path><path d="M75.47 354.54L75.47 354.54" stroke="#132e65" stroke-width="1.5"></path><path d="M253.56 215.71L253.56 215.71" stroke="#132e65" stroke-width="1.5"></path><path d="M253.56 215.71L382.11 216.22" stroke="#132e65" stroke-width="1.5"></path><path d="M253.56 215.71L351.31 344.69" stroke="#132e65" stroke-width="1.5"></path><path d="M253.56 215.71L192.65 387.14" stroke="#132e65" stroke-width="1.5"></path><path d="M192.65 387.14L192.65 387.14" stroke="#132e65" stroke-width="1.5"></path><path d="M192.65 387.14L75.47 354.54" stroke="#132e65" stroke-width="1.5"></path><path d="M192.65 387.14L243.54 520.3" stroke="#132e65" stroke-width="1.5"></path><path d="M243.54 520.3L243.54 520.3" stroke="#132e65" stroke-width="1.5"></path><path d="M243.54 520.3L409.09 543.03" stroke="#132e65" stroke-width="1.5"></path><path d="M243.54 520.3L351.31 344.69" stroke="#132e65" stroke-width="1.5"></path><path d="M382.11 216.22L382.11 216.22" stroke="#132e65" stroke-width="1.5"></path><path d="M382.11 216.22L505.49 236.35" stroke="#132e65" stroke-width="1.5"></path><path d="M351.31 344.69L351.31 344.69" stroke="#132e65" stroke-width="1.5"></path><path d="M351.31 344.69L382.11 216.22" stroke="#132e65" stroke-width="1.5"></path><path d="M351.31 344.69L488.66 367.33" stroke="#132e65" stroke-width="1.5"></path><path d="M351.31 344.69L192.65 387.14" stroke="#132e65" stroke-width="1.5"></path><path d="M351.31 344.69L505.49 236.35" stroke="#132e65" stroke-width="1.5"></path><path d="M409.09 543.03L409.09 543.03" stroke="#132e65" stroke-width="1.5"></path><path d="M409.09 543.03L488.66 367.33" stroke="#132e65" stroke-width="1.5"></path><path d="M409.09 543.03L351.31 344.69" stroke="#132e65" stroke-width="1.5"></path><path d="M505.49 236.35L505.49 236.35" stroke="#132e65" stroke-width="1.5"></path><path d="M505.49 236.35L488.66 367.33" stroke="#132e65" stroke-width="1.5"></path><path d="M488.66 367.33L488.66 367.33" stroke="#132e65" stroke-width="1.5"></path><path d="M488.66 367.33L382.11 216.22" stroke="#132e65" stroke-width="1.5"></path><path d="M649.52 194.18L649.52 194.18" stroke="#132e65" stroke-width="1.5"></path><path d="M649.52 194.18L505.49 236.35" stroke="#132e65" stroke-width="1.5"></path><path d="M649.52 194.18L834.63 222.16" stroke="#132e65" stroke-width="1.5"></path><path d="M649.52 194.18L795.29 338.55" stroke="#132e65" stroke-width="1.5"></path><path d="M649.52 194.18L859.96 101.04" stroke="#132e65" stroke-width="1.5"></path><path d="M649.52 194.18L488.66 367.33" stroke="#132e65" stroke-width="1.5"></path><path d="M649.52 194.18L382.11 216.22" stroke="#132e65" stroke-width="1.5"></path><path d="M665.81 492.8L665.81 492.8" stroke="#132e65" stroke-width="1.5"></path><path d="M665.81 492.8L827.78 528.89" stroke="#132e65" stroke-width="1.5"></path><path d="M665.81 492.8L795.29 338.55" stroke="#132e65" stroke-width="1.5"></path><path d="M665.81 492.8L488.66 367.33" stroke="#132e65" stroke-width="1.5"></path><path d="M665.81 492.8L409.09 543.03" stroke="#132e65" stroke-width="1.5"></path><path d="M665.81 492.8L649.52 194.18" stroke="#132e65" stroke-width="1.5"></path><path d="M665.81 492.8L505.49 236.35" stroke="#132e65" stroke-width="1.5"></path><path d="M859.96 101.04L859.96 101.04" stroke="#132e65" stroke-width="1.5"></path><path d="M859.96 101.04L979.22 77.25" stroke="#132e65" stroke-width="1.5"></path><path d="M859.96 101.04L834.63 222.16" stroke="#132e65" stroke-width="1.5"></path><path d="M859.96 101.04L964.04 210.53" stroke="#132e65" stroke-width="1.5"></path><path d="M834.63 222.16L834.63 222.16" stroke="#132e65" stroke-width="1.5"></path><path d="M834.63 222.16L795.29 338.55" stroke="#132e65" stroke-width="1.5"></path><path d="M795.29 338.55L795.29 338.55" stroke="#132e65" stroke-width="1.5"></path><path d="M795.29 338.55L975.85 380.46" stroke="#132e65" stroke-width="1.5"></path><path d="M795.29 338.55L827.78 528.89" stroke="#132e65" stroke-width="1.5"></path><path d="M827.78 528.89L827.78 528.89" stroke="#132e65" stroke-width="1.5"></path><path d="M827.78 528.89L984.54 505.95" stroke="#132e65" stroke-width="1.5"></path><path d="M947.55 -107.63L947.55 -107.63" stroke="#132e65" stroke-width="1.5"></path><path d="M947.55 -107.63L979.22 77.25" stroke="#132e65" stroke-width="1.5"></path><path d="M947.55 -107.63L1130.13 -40.46" stroke="#132e65" stroke-width="1.5"></path><path d="M947.55 -107.63L859.96 101.04" stroke="#132e65" stroke-width="1.5"></path><path d="M947.55 -107.63L1153.3 65.97" stroke="#132e65" stroke-width="1.5"></path><path d="M947.55 -107.63L1259.35 -67.7" stroke="#132e65" stroke-width="1.5"></path><path d="M947.55 -107.63L964.04 210.53" stroke="#132e65" stroke-width="1.5"></path><path d="M979.22 77.25L979.22 77.25" stroke="#132e65" stroke-width="1.5"></path><path d="M979.22 77.25L964.04 210.53" stroke="#132e65" stroke-width="1.5"></path><path d="M979.22 77.25L1153.3 65.97" stroke="#132e65" stroke-width="1.5"></path><path d="M979.22 77.25L1130.13 -40.46" stroke="#132e65" stroke-width="1.5"></path><path d="M964.04 210.53L964.04 210.53" stroke="#132e65" stroke-width="1.5"></path><path d="M964.04 210.53L834.63 222.16" stroke="#132e65" stroke-width="1.5"></path><path d="M964.04 210.53L1105.92 253.51" stroke="#132e65" stroke-width="1.5"></path><path d="M964.04 210.53L975.85 380.46" stroke="#132e65" stroke-width="1.5"></path><path d="M975.85 380.46L975.85 380.46" stroke="#132e65" stroke-width="1.5"></path><path d="M975.85 380.46L984.54 505.95" stroke="#132e65" stroke-width="1.5"></path><path d="M984.54 505.95L984.54 505.95" stroke="#132e65" stroke-width="1.5"></path><path d="M984.54 505.95L1119.01 502.14" stroke="#132e65" stroke-width="1.5"></path><path d="M984.54 505.95L1156.54 398.46" stroke="#132e65" stroke-width="1.5"></path><path d="M1130.13 -40.46L1130.13 -40.46" stroke="#132e65" stroke-width="1.5"></path><path d="M1130.13 -40.46L1153.3 65.97" stroke="#132e65" stroke-width="1.5"></path><path d="M1130.13 -40.46L1259.35 -67.7" stroke="#132e65" stroke-width="1.5"></path><path d="M1130.13 -40.46L1281.81 70.59" stroke="#132e65" stroke-width="1.5"></path><path d="M1153.3 65.97L1153.3 65.97" stroke="#132e65" stroke-width="1.5"></path><path d="M1153.3 65.97L1281.81 70.59" stroke="#132e65" stroke-width="1.5"></path><path d="M1153.3 65.97L1246.5 199.7" stroke="#132e65" stroke-width="1.5"></path><path d="M1153.3 65.97L1259.35 -67.7" stroke="#132e65" stroke-width="1.5"></path><path d="M1105.92 253.51L1105.92 253.51" stroke="#132e65" stroke-width="1.5"></path><path d="M1105.92 253.51L1246.5 199.7" stroke="#132e65" stroke-width="1.5"></path><path d="M1105.92 253.51L1156.54 398.46" stroke="#132e65" stroke-width="1.5"></path><path d="M1156.54 398.46L1156.54 398.46" stroke="#132e65" stroke-width="1.5"></path><path d="M1156.54 398.46L1119.01 502.14" stroke="#132e65" stroke-width="1.5"></path><path d="M1156.54 398.46L1264.21 537.91" stroke="#132e65" stroke-width="1.5"></path><path d="M1119.01 502.14L1119.01 502.14" stroke="#132e65" stroke-width="1.5"></path><path d="M1119.01 502.14L1264.21 537.91" stroke="#132e65" stroke-width="1.5"></path><path d="M1259.35 -67.7L1259.35 -67.7" stroke="#132e65" stroke-width="1.5"></path><path d="M1259.35 -67.7L1281.81 70.59" stroke="#132e65" stroke-width="1.5"></path><path d="M1259.35 -67.7L1414.49 -75.73" stroke="#132e65" stroke-width="1.5"></path><path d="M1259.35 -67.7L1418.03 112.06" stroke="#132e65" stroke-width="1.5"></path><path d="M1259.35 -67.7L1246.5 199.7" stroke="#132e65" stroke-width="1.5"></path><path d="M1281.81 70.59L1281.81 70.59" stroke="#132e65" stroke-width="1.5"></path><path d="M1281.81 70.59L1246.5 199.7" stroke="#132e65" stroke-width="1.5"></path><path d="M1246.5 199.7L1246.5 199.7" stroke="#132e65" stroke-width="1.5"></path><path d="M1246.5 199.7L1433.94 241.48" stroke="#132e65" stroke-width="1.5"></path><path d="M1246.5 199.7L1418.03 112.06" stroke="#132e65" stroke-width="1.5"></path><path d="M1246.5 199.7L1156.54 398.46" stroke="#132e65" stroke-width="1.5"></path><path d="M1264.21 537.91L1264.21 537.91" stroke="#132e65" stroke-width="1.5"></path><path d="M1264.21 537.91L1396.31 543.24" stroke="#132e65" stroke-width="1.5"></path><path d="M1414.49 -75.73L1414.49 -75.73" stroke="#132e65" stroke-width="1.5"></path><path d="M1414.49 -75.73L1558.53 -64.97" stroke="#132e65" stroke-width="1.5"></path><path d="M1414.49 -75.73L1418.03 112.06" stroke="#132e65" stroke-width="1.5"></path><path d="M1414.49 -75.73L1281.81 70.59" stroke="#132e65" stroke-width="1.5"></path><path d="M1414.49 -75.73L1538.13 93.5" stroke="#132e65" stroke-width="1.5"></path><path d="M1414.49 -75.73L1130.13 -40.46" stroke="#132e65" stroke-width="1.5"></path><path d="M1418.03 112.06L1418.03 112.06" stroke="#132e65" stroke-width="1.5"></path><path d="M1418.03 112.06L1538.13 93.5" stroke="#132e65" stroke-width="1.5"></path><path d="M1418.03 112.06L1433.94 241.48" stroke="#132e65" stroke-width="1.5"></path><path d="M1433.94 241.48L1433.94 241.48" stroke="#132e65" stroke-width="1.5"></path><path d="M1433.94 241.48L1592.18 227.7" stroke="#132e65" stroke-width="1.5"></path><path d="M1433.94 241.48L1538.13 93.5" stroke="#132e65" stroke-width="1.5"></path><path d="M1433.94 241.48L1577.35 366.63" stroke="#132e65" stroke-width="1.5"></path><path d="M1433.94 241.48L1281.81 70.59" stroke="#132e65" stroke-width="1.5"></path><path d="M1396.31 543.24L1396.31 543.24" stroke="#132e65" stroke-width="1.5"></path><path d="M1396.31 543.24L1588.11 507.59" stroke="#132e65" stroke-width="1.5"></path><path d="M1396.31 543.24L1577.35 366.63" stroke="#132e65" stroke-width="1.5"></path><path d="M1396.31 543.24L1156.54 398.46" stroke="#132e65" stroke-width="1.5"></path><path d="M1396.31 543.24L1119.01 502.14" stroke="#132e65" stroke-width="1.5"></path><path d="M1558.53 -64.97L1558.53 -64.97" stroke="#132e65" stroke-width="1.5"></path><path d="M1558.53 -64.97L1538.13 93.5" stroke="#132e65" stroke-width="1.5"></path><path d="M1538.13 93.5L1538.13 93.5" stroke="#132e65" stroke-width="1.5"></path><path d="M1538.13 93.5L1592.18 227.7" stroke="#132e65" stroke-width="1.5"></path><path d="M1592.18 227.7L1592.18 227.7" stroke="#132e65" stroke-width="1.5"></path><path d="M1592.18 227.7L1577.35 366.63" stroke="#132e65" stroke-width="1.5"></path><path d="M1592.18 227.7L1418.03 112.06" stroke="#132e65" stroke-width="1.5"></path><path d="M1592.18 227.7L1588.11 507.59" stroke="#132e65" stroke-width="1.5"></path><path d="M1577.35 366.63L1577.35 366.63" stroke="#132e65" stroke-width="1.5"></path><path d="M1588.11 507.59L1588.11 507.59" stroke="#132e65" stroke-width="1.5"></path><path d="M1588.11 507.59L1577.35 366.63" stroke="#132e65" stroke-width="1.5"></path><circle r="5" cx="-83.07" cy="230.21" fill="#132e65"></circle><circle r="5" cx="-60.69" cy="382.13" fill="#132e65"></circle><circle r="5" cx="-67.62" cy="510.17" fill="#132e65"></circle><circle r="5" cx="60.7" cy="246.1" fill="#132e65"></circle><circle r="5" cx="75.47" cy="354.54" fill="#132e65"></circle><circle r="5" cx="253.56" cy="215.71" fill="#132e65"></circle><circle r="5" cx="192.65" cy="387.14" fill="#132e65"></circle><circle r="5" cx="243.54" cy="520.3" fill="#132e65"></circle><circle r="5" cx="382.11" cy="216.22" fill="#132e65"></circle><circle r="5" cx="351.31" cy="344.69" fill="#132e65"></circle><circle r="5" cx="409.09" cy="543.03" fill="#132e65"></circle><circle r="5" cx="505.49" cy="236.35" fill="#132e65"></circle><circle r="5" cx="488.66" cy="367.33" fill="#132e65"></circle><circle r="5" cx="649.52" cy="194.18" fill="#132e65"></circle><circle r="5" cx="665.81" cy="492.8" fill="#132e65"></circle><circle r="5" cx="859.96" cy="101.04" fill="#132e65"></circle><circle r="5" cx="834.63" cy="222.16" fill="#132e65"></circle><circle r="5" cx="795.29" cy="338.55" fill="#132e65"></circle><circle r="5" cx="827.78" cy="528.89" fill="#132e65"></circle><circle r="5" cx="947.55" cy="-107.63" fill="#132e65"></circle><circle r="5" cx="979.22" cy="77.25" fill="#132e65"></circle><circle r="5" cx="964.04" cy="210.53" fill="#132e65"></circle><circle r="5" cx="975.85" cy="380.46" fill="#132e65"></circle><circle r="5" cx="984.54" cy="505.95" fill="#132e65"></circle><circle r="5" cx="1130.13" cy="-40.46" fill="#132e65"></circle><circle r="5" cx="1153.3" cy="65.97" fill="#132e65"></circle><circle r="5" cx="1105.92" cy="253.51" fill="#132e65"></circle><circle r="5" cx="1156.54" cy="398.46" fill="#132e65"></circle><circle r="5" cx="1119.01" cy="502.14" fill="#132e65"></circle><circle r="5" cx="1259.35" cy="-67.7" fill="#132e65"></circle><circle r="5" cx="1281.81" cy="70.59" fill="#132e65"></circle><circle r="5" cx="1246.5" cy="199.7" fill="#132e65"></circle><circle r="5" cx="1264.21" cy="537.91" fill="#132e65"></circle><circle r="5" cx="1414.49" cy="-75.73" fill="#132e65"></circle><circle r="5" cx="1418.03" cy="112.06" fill="#132e65"></circle><circle r="5" cx="1433.94" cy="241.48" fill="#132e65"></circle><circle r="5" cx="1396.31" cy="543.24" fill="#132e65"></circle><circle r="5" cx="1558.53" cy="-64.97" fill="#132e65"></circle><circle r="5" cx="1538.13" cy="93.5" fill="#132e65"></circle><circle r="5" cx="1592.18" cy="227.7" fill="#132e65"></circle><circle r="5" cx="1577.35" cy="366.63" fill="#132e65"></circle><circle r="5" cx="1588.11" cy="507.59" fill="#132e65"></circle><path d="M90.96 361.64L90.96 361.64" stroke="hsl(228.5, 77.2%, 51.5%)" stroke-width="1.5"></path><path d="M90.96 361.64L193.28 378.45" stroke="hsl(228.5, 77.2%, 51.5%)" stroke-width="1.5"></path><path d="M90.96 361.64L99.95 557.38" stroke="hsl(228.5, 77.2%, 51.5%)" stroke-width="1.5"></path><path d="M90.96 361.64L-109.26 383.6" stroke="hsl(228.5, 77.2%, 51.5%)" stroke-width="1.5"></path><path d="M352.07 372.78L352.07 372.78" stroke="hsl(228.5, 77.2%, 51.5%)" stroke-width="1.5"></path><path d="M352.07 372.78L385.27 509.15" stroke="hsl(228.5, 77.2%, 51.5%)" stroke-width="1.5"></path><path d="M352.07 372.78L496.48 401.03" stroke="hsl(228.5, 77.2%, 51.5%)" stroke-width="1.5"></path><path d="M352.07 372.78L193.28 378.45" stroke="hsl(228.5, 77.2%, 51.5%)" stroke-width="1.5"></path><path d="M352.07 372.78L490.48 491.4" stroke="hsl(228.5, 77.2%, 51.5%)" stroke-width="1.5"></path><path d="M352.07 372.78L259.92 561.26" stroke="hsl(228.5, 77.2%, 51.5%)" stroke-width="1.5"></path><path d="M385.27 509.15L385.27 509.15" stroke="hsl(228.5, 77.2%, 51.5%)" stroke-width="1.5"></path><path d="M385.27 509.15L490.48 491.4" stroke="hsl(228.5, 77.2%, 51.5%)" stroke-width="1.5"></path><path d="M385.27 509.15L259.92 561.26" stroke="hsl(228.5, 77.2%, 51.5%)" stroke-width="1.5"></path><path d="M385.27 509.15L496.48 401.03" stroke="hsl(228.5, 77.2%, 51.5%)" stroke-width="1.5"></path><path d="M385.27 509.15L193.28 378.45" stroke="hsl(228.5, 77.2%, 51.5%)" stroke-width="1.5"></path><path d="M806.69 217.65L806.69 217.65" stroke="hsl(228.5, 77.2%, 51.5%)" stroke-width="1.5"></path><path d="M806.69 217.65L794.17 391.14" stroke="hsl(228.5, 77.2%, 51.5%)" stroke-width="1.5"></path><path d="M806.69 217.65L980.47 239.89" stroke="hsl(228.5, 77.2%, 51.5%)" stroke-width="1.5"></path><path d="M806.69 217.65L951.57 396.37" stroke="hsl(228.5, 77.2%, 51.5%)" stroke-width="1.5"></path><path d="M806.69 217.65L668.38 402.61" stroke="hsl(228.5, 77.2%, 51.5%)" stroke-width="1.5"></path><path d="M806.69 217.65L544.16 252.3" stroke="hsl(228.5, 77.2%, 51.5%)" stroke-width="1.5"></path><path d="M794.17 391.14L794.17 391.14" stroke="hsl(228.5, 77.2%, 51.5%)" stroke-width="1.5"></path><path d="M794.17 391.14L668.38 402.61" stroke="hsl(228.5, 77.2%, 51.5%)" stroke-width="1.5"></path><path d="M794.17 391.14L787.6 533.22" stroke="hsl(228.5, 77.2%, 51.5%)" stroke-width="1.5"></path><path d="M794.17 391.14L951.57 396.37" stroke="hsl(228.5, 77.2%, 51.5%)" stroke-width="1.5"></path><path d="M794.17 391.14L990.19 489.99" stroke="hsl(228.5, 77.2%, 51.5%)" stroke-width="1.5"></path><path d="M980.47 239.89L980.47 239.89" stroke="hsl(228.5, 77.2%, 51.5%)" stroke-width="1.5"></path><path d="M980.47 239.89L1126.53 193.97" stroke="hsl(228.5, 77.2%, 51.5%)" stroke-width="1.5"></path><path d="M980.47 239.89L951.57 396.37" stroke="hsl(228.5, 77.2%, 51.5%)" stroke-width="1.5"></path><path d="M980.47 239.89L1094.1 381" stroke="hsl(228.5, 77.2%, 51.5%)" stroke-width="1.5"></path><path d="M980.47 239.89L1121.66 78.23" stroke="hsl(228.5, 77.2%, 51.5%)" stroke-width="1.5"></path><path d="M1150.91 541.4L1150.91 541.4" stroke="hsl(228.5, 77.2%, 51.5%)" stroke-width="1.5"></path><path d="M1150.91 541.4L990.19 489.99" stroke="hsl(228.5, 77.2%, 51.5%)" stroke-width="1.5"></path><path d="M1150.91 541.4L1094.1 381" stroke="hsl(228.5, 77.2%, 51.5%)" stroke-width="1.5"></path><path d="M1150.91 541.4L1260.04 381.14" stroke="hsl(228.5, 77.2%, 51.5%)" stroke-width="1.5"></path><path d="M1269.87 190.14L1269.87 190.14" stroke="hsl(228.5, 77.2%, 51.5%)" stroke-width="1.5"></path><path d="M1269.87 190.14L1287.74 91.18" stroke="hsl(228.5, 77.2%, 51.5%)" stroke-width="1.5"></path><path d="M1269.87 190.14L1390.63 223" stroke="hsl(228.5, 77.2%, 51.5%)" stroke-width="1.5"></path><path d="M1269.87 190.14L1126.53 193.97" stroke="hsl(228.5, 77.2%, 51.5%)" stroke-width="1.5"></path><path d="M1605.26 552.43L1605.26 552.43" stroke="hsl(228.5, 77.2%, 51.5%)" stroke-width="1.5"></path><path d="M1605.26 552.43L1544.16 411.97" stroke="hsl(228.5, 77.2%, 51.5%)" stroke-width="1.5"></path><path d="M1605.26 552.43L1447.89 527.92" stroke="hsl(228.5, 77.2%, 51.5%)" stroke-width="1.5"></path><path d="M1605.26 552.43L1460.2 396.59" stroke="hsl(228.5, 77.2%, 51.5%)" stroke-width="1.5"></path><path d="M-109.26 383.6L-109.26 383.6" stroke="hsl(228.5, 77.2%, 51.5%)" stroke-width="1.5"></path><path d="M-109.26 383.6L-43.41 516.92" stroke="hsl(228.5, 77.2%, 51.5%)" stroke-width="1.5"></path><path d="M-43.41 516.92L-43.41 516.92" stroke="hsl(228.5, 77.2%, 51.5%)" stroke-width="1.5"></path><path d="M-43.41 516.92L99.95 557.38" stroke="hsl(228.5, 77.2%, 51.5%)" stroke-width="1.5"></path><path d="M-43.41 516.92L90.96 361.64" stroke="hsl(228.5, 77.2%, 51.5%)" stroke-width="1.5"></path><path d="M-43.41 516.92L193.28 378.45" stroke="hsl(228.5, 77.2%, 51.5%)" stroke-width="1.5"></path><path d="M99.95 557.38L99.95 557.38" stroke="hsl(228.5, 77.2%, 51.5%)" stroke-width="1.5"></path><path d="M99.95 557.38L259.92 561.26" stroke="hsl(228.5, 77.2%, 51.5%)" stroke-width="1.5"></path><path d="M99.95 557.38L193.28 378.45" stroke="hsl(228.5, 77.2%, 51.5%)" stroke-width="1.5"></path><path d="M99.95 557.38L-109.26 383.6" stroke="hsl(228.5, 77.2%, 51.5%)" stroke-width="1.5"></path><path d="M193.28 378.45L193.28 378.45" stroke="hsl(228.5, 77.2%, 51.5%)" stroke-width="1.5"></path><path d="M193.28 378.45L259.92 561.26" stroke="hsl(228.5, 77.2%, 51.5%)" stroke-width="1.5"></path><path d="M259.92 561.26L259.92 561.26" stroke="hsl(228.5, 77.2%, 51.5%)" stroke-width="1.5"></path><path d="M544.16 252.3L544.16 252.3" stroke="hsl(228.5, 77.2%, 51.5%)" stroke-width="1.5"></path><path d="M544.16 252.3L496.48 401.03" stroke="hsl(228.5, 77.2%, 51.5%)" stroke-width="1.5"></path><path d="M544.16 252.3L668.38 402.61" stroke="hsl(228.5, 77.2%, 51.5%)" stroke-width="1.5"></path><path d="M544.16 252.3L352.07 372.78" stroke="hsl(228.5, 77.2%, 51.5%)" stroke-width="1.5"></path><path d="M544.16 252.3L490.48 491.4" stroke="hsl(228.5, 77.2%, 51.5%)" stroke-width="1.5"></path><path d="M496.48 401.03L496.48 401.03" stroke="hsl(228.5, 77.2%, 51.5%)" stroke-width="1.5"></path><path d="M496.48 401.03L490.48 491.4" stroke="hsl(228.5, 77.2%, 51.5%)" stroke-width="1.5"></path><path d="M490.48 491.4L490.48 491.4" stroke="hsl(228.5, 77.2%, 51.5%)" stroke-width="1.5"></path><path d="M668.38 402.61L668.38 402.61" stroke="hsl(228.5, 77.2%, 51.5%)" stroke-width="1.5"></path><path d="M668.38 402.61L496.48 401.03" stroke="hsl(228.5, 77.2%, 51.5%)" stroke-width="1.5"></path><path d="M668.38 402.61L787.6 533.22" stroke="hsl(228.5, 77.2%, 51.5%)" stroke-width="1.5"></path><path d="M668.38 402.61L490.48 491.4" stroke="hsl(228.5, 77.2%, 51.5%)" stroke-width="1.5"></path><path d="M787.6 533.22L787.6 533.22" stroke="hsl(228.5, 77.2%, 51.5%)" stroke-width="1.5"></path><path d="M787.6 533.22L990.19 489.99" stroke="hsl(228.5, 77.2%, 51.5%)" stroke-width="1.5"></path><path d="M951.57 396.37L951.57 396.37" stroke="hsl(228.5, 77.2%, 51.5%)" stroke-width="1.5"></path><path d="M951.57 396.37L990.19 489.99" stroke="hsl(228.5, 77.2%, 51.5%)" stroke-width="1.5"></path><path d="M951.57 396.37L1094.1 381" stroke="hsl(228.5, 77.2%, 51.5%)" stroke-width="1.5"></path><path d="M951.57 396.37L787.6 533.22" stroke="hsl(228.5, 77.2%, 51.5%)" stroke-width="1.5"></path><path d="M990.19 489.99L990.19 489.99" stroke="hsl(228.5, 77.2%, 51.5%)" stroke-width="1.5"></path><path d="M990.19 489.99L1094.1 381" stroke="hsl(228.5, 77.2%, 51.5%)" stroke-width="1.5"></path><path d="M1154.46 -108.38L1154.46 -108.38" stroke="hsl(228.5, 77.2%, 51.5%)" stroke-width="1.5"></path><path d="M1154.46 -108.38L1311.28 -39.23" stroke="hsl(228.5, 77.2%, 51.5%)" stroke-width="1.5"></path><path d="M1154.46 -108.38L1121.66 78.23" stroke="hsl(228.5, 77.2%, 51.5%)" stroke-width="1.5"></path><path d="M1121.66 78.23L1121.66 78.23" stroke="hsl(228.5, 77.2%, 51.5%)" stroke-width="1.5"></path><path d="M1121.66 78.23L1126.53 193.97" stroke="hsl(228.5, 77.2%, 51.5%)" stroke-width="1.5"></path><path d="M1121.66 78.23L1287.74 91.18" stroke="hsl(228.5, 77.2%, 51.5%)" stroke-width="1.5"></path><path d="M1121.66 78.23L1269.87 190.14" stroke="hsl(228.5, 77.2%, 51.5%)" stroke-width="1.5"></path><path d="M1121.66 78.23L1311.28 -39.23" stroke="hsl(228.5, 77.2%, 51.5%)" stroke-width="1.5"></path><path d="M1126.53 193.97L1126.53 193.97" stroke="hsl(228.5, 77.2%, 51.5%)" stroke-width="1.5"></path><path d="M1094.1 381L1094.1 381" stroke="hsl(228.5, 77.2%, 51.5%)" stroke-width="1.5"></path><path d="M1094.1 381L1260.04 381.14" stroke="hsl(228.5, 77.2%, 51.5%)" stroke-width="1.5"></path><path d="M1311.28 -39.23L1311.28 -39.23" stroke="hsl(228.5, 77.2%, 51.5%)" stroke-width="1.5"></path><path d="M1311.28 -39.23L1412.34 -101.97" stroke="hsl(228.5, 77.2%, 51.5%)" stroke-width="1.5"></path><path d="M1311.28 -39.23L1405.85 42.37" stroke="hsl(228.5, 77.2%, 51.5%)" stroke-width="1.5"></path><path d="M1287.74 91.18L1287.74 91.18" stroke="hsl(228.5, 77.2%, 51.5%)" stroke-width="1.5"></path><path d="M1287.74 91.18L1405.85 42.37" stroke="hsl(228.5, 77.2%, 51.5%)" stroke-width="1.5"></path><path d="M1287.74 91.18L1311.28 -39.23" stroke="hsl(228.5, 77.2%, 51.5%)" stroke-width="1.5"></path><path d="M1287.74 91.18L1390.63 223" stroke="hsl(228.5, 77.2%, 51.5%)" stroke-width="1.5"></path><path d="M1287.74 91.18L1126.53 193.97" stroke="hsl(228.5, 77.2%, 51.5%)" stroke-width="1.5"></path><path d="M1260.04 381.14L1260.04 381.14" stroke="hsl(228.5, 77.2%, 51.5%)" stroke-width="1.5"></path><path d="M1260.04 381.14L1269.87 190.14" stroke="hsl(228.5, 77.2%, 51.5%)" stroke-width="1.5"></path><path d="M1260.04 381.14L1460.2 396.59" stroke="hsl(228.5, 77.2%, 51.5%)" stroke-width="1.5"></path><path d="M1260.04 381.14L1390.63 223" stroke="hsl(228.5, 77.2%, 51.5%)" stroke-width="1.5"></path><path d="M1412.34 -101.97L1412.34 -101.97" stroke="hsl(228.5, 77.2%, 51.5%)" stroke-width="1.5"></path><path d="M1412.34 -101.97L1405.85 42.37" stroke="hsl(228.5, 77.2%, 51.5%)" stroke-width="1.5"></path><path d="M1412.34 -101.97L1597.68 -54.88" stroke="hsl(228.5, 77.2%, 51.5%)" stroke-width="1.5"></path><path d="M1412.34 -101.97L1287.74 91.18" stroke="hsl(228.5, 77.2%, 51.5%)" stroke-width="1.5"></path><path d="M1412.34 -101.97L1154.46 -108.38" stroke="hsl(228.5, 77.2%, 51.5%)" stroke-width="1.5"></path><path d="M1405.85 42.37L1405.85 42.37" stroke="hsl(228.5, 77.2%, 51.5%)" stroke-width="1.5"></path><path d="M1390.63 223L1390.63 223" stroke="hsl(228.5, 77.2%, 51.5%)" stroke-width="1.5"></path><path d="M1460.2 396.59L1460.2 396.59" stroke="hsl(228.5, 77.2%, 51.5%)" stroke-width="1.5"></path><path d="M1460.2 396.59L1544.16 411.97" stroke="hsl(228.5, 77.2%, 51.5%)" stroke-width="1.5"></path><path d="M1460.2 396.59L1447.89 527.92" stroke="hsl(228.5, 77.2%, 51.5%)" stroke-width="1.5"></path><path d="M1460.2 396.59L1390.63 223" stroke="hsl(228.5, 77.2%, 51.5%)" stroke-width="1.5"></path><path d="M1447.89 527.92L1447.89 527.92" stroke="hsl(228.5, 77.2%, 51.5%)" stroke-width="1.5"></path><path d="M1447.89 527.92L1544.16 411.97" stroke="hsl(228.5, 77.2%, 51.5%)" stroke-width="1.5"></path><path d="M1597.68 -54.88L1597.68 -54.88" stroke="hsl(228.5, 77.2%, 51.5%)" stroke-width="1.5"></path><path d="M1597.68 -54.88L1601.17 74.23" stroke="hsl(228.5, 77.2%, 51.5%)" stroke-width="1.5"></path><path d="M1601.17 74.23L1601.17 74.23" stroke="hsl(228.5, 77.2%, 51.5%)" stroke-width="1.5"></path><path d="M1601.17 74.23L1557.63 231.75" stroke="hsl(228.5, 77.2%, 51.5%)" stroke-width="1.5"></path><path d="M1601.17 74.23L1405.85 42.37" stroke="hsl(228.5, 77.2%, 51.5%)" stroke-width="1.5"></path><path d="M1557.63 231.75L1557.63 231.75" stroke="hsl(228.5, 77.2%, 51.5%)" stroke-width="1.5"></path><path d="M1557.63 231.75L1390.63 223" stroke="hsl(228.5, 77.2%, 51.5%)" stroke-width="1.5"></path><path d="M1557.63 231.75L1544.16 411.97" stroke="hsl(228.5, 77.2%, 51.5%)" stroke-width="1.5"></path><path d="M1544.16 411.97L1544.16 411.97" stroke="hsl(228.5, 77.2%, 51.5%)" stroke-width="1.5"></path><path d="M1544.16 411.97L1390.63 223" stroke="hsl(228.5, 77.2%, 51.5%)" stroke-width="1.5"></path><path d="M1544.16 411.97L1260.04 381.14" stroke="hsl(228.5, 77.2%, 51.5%)" stroke-width="1.5"></path><circle r="25" cx="90.96" cy="361.64" fill="url(#SvgjsRadialGradient1047)"></circle><circle r="25" cx="352.07" cy="372.78" fill="url(#SvgjsRadialGradient1047)"></circle><circle r="25" cx="385.27" cy="509.15" fill="url(#SvgjsRadialGradient1047)"></circle><circle r="25" cx="806.69" cy="217.65" fill="url(#SvgjsRadialGradient1047)"></circle><circle r="25" cx="794.17" cy="391.14" fill="url(#SvgjsRadialGradient1047)"></circle><circle r="25" cx="980.47" cy="239.89" fill="url(#SvgjsRadialGradient1047)"></circle><circle r="25" cx="1150.91" cy="541.4" fill="url(#SvgjsRadialGradient1047)"></circle><circle r="25" cx="1269.87" cy="190.14" fill="url(#SvgjsRadialGradient1047)"></circle><circle r="25" cx="1605.26" cy="552.43" fill="url(#SvgjsRadialGradient1047)"></circle><circle r="5" cx="-109.26" cy="383.6" fill="#8b9ad9"></circle><circle r="5" cx="-43.41" cy="516.92" fill="#8b9ad9"></circle><circle r="5" cx="99.95" cy="557.38" fill="#8b9ad9"></circle><circle r="5" cx="193.28" cy="378.45" fill="#8b9ad9"></circle><circle r="5" cx="259.92" cy="561.26" fill="#8b9ad9"></circle><circle r="5" cx="544.16" cy="252.3" fill="#8b9ad9"></circle><circle r="5" cx="496.48" cy="401.03" fill="#8b9ad9"></circle><circle r="5" cx="490.48" cy="491.4" fill="#8b9ad9"></circle><circle r="5" cx="668.38" cy="402.61" fill="#8b9ad9"></circle><circle r="5" cx="787.6" cy="533.22" fill="#8b9ad9"></circle><circle r="5" cx="951.57" cy="396.37" fill="#8b9ad9"></circle><circle r="5" cx="990.19" cy="489.99" fill="#8b9ad9"></circle><circle r="5" cx="1154.46" cy="-108.38" fill="#8b9ad9"></circle><circle r="5" cx="1121.66" cy="78.23" fill="#8b9ad9"></circle><circle r="5" cx="1126.53" cy="193.97" fill="#8b9ad9"></circle><circle r="5" cx="1094.1" cy="381" fill="#8b9ad9"></circle><circle r="5" cx="1311.28" cy="-39.23" fill="#8b9ad9"></circle><circle r="5" cx="1287.74" cy="91.18" fill="#8b9ad9"></circle><circle r="5" cx="1260.04" cy="381.14" fill="#8b9ad9"></circle><circle r="5" cx="1412.34" cy="-101.97" fill="#8b9ad9"></circle><circle r="5" cx="1405.85" cy="42.37" fill="#8b9ad9"></circle><circle r="5" cx="1390.63" cy="223" fill="#8b9ad9"></circle><circle r="5" cx="1460.2" cy="396.59" fill="#8b9ad9"></circle><circle r="5" cx="1447.89" cy="527.92" fill="#8b9ad9"></circle><circle r="5" cx="1597.68" cy="-54.88" fill="#8b9ad9"></circle><circle r="5" cx="1601.17" cy="74.23" fill="#8b9ad9"></circle><circle r="5" cx="1557.63" cy="231.75" fill="#8b9ad9"></circle><circle r="5" cx="1544.16" cy="411.97" fill="#8b9ad9"></circle></g><defs><mask id="SvgjsMask1046"><rect width="1440" height="350" fill="#ffffff"></rect></mask><radialGradient id="SvgjsRadialGradient1047"><stop stop-color="#ffffff" offset="0.1"></stop><stop stop-color="#1735b3" offset="0.2"></stop><stop stop-color="rgba(23, 53, 179, 0)" offset="1"></stop></radialGradient></defs></svg>